<svg version="1.1" id="Layer_1" xmlns="http://www.w3.org/2000/svg" xmlns:xlink="http://www.w3.org/1999/xlink" x="0px" y="0px"
	 width="100%" viewBox="0 0 507 227" enable-background="new 0 0 507 227" xml:space="preserve">
<path fill="#292929" opacity="1.000000" stroke="none" 
	d="
M348.000000,228.000000 
	C232.039337,228.000000 116.578659,228.000000 1.058995,228.000000 
	C1.058995,152.398468 1.058995,76.796883 1.058995,1.097645 
	C169.877304,1.097645 338.754700,1.097645 507.816040,1.097645 
	C507.816040,76.666306 507.816040,152.333115 507.816040,228.000000 
	C454.796936,228.000000 401.648468,228.000000 348.000000,228.000000 
M82.470268,149.448517 
	C85.211220,149.448517 87.952164,149.448517 91.345314,149.448517 
	C91.345314,131.820084 91.345314,115.053940 91.345314,97.071678 
	C92.878784,99.090981 93.595436,99.983551 94.257904,100.914680 
	C104.873795,115.835869 115.451462,130.784485 126.141312,145.652466 
	C127.221252,147.154495 128.869095,149.076828 130.425964,149.249664 
	C134.834229,149.739044 139.332138,149.421021 143.861664,149.421021 
	C143.861664,120.709969 143.861664,92.510437 143.861664,64.258636 
	C138.218292,64.258636 132.965164,64.258636 127.138954,64.258636 
	C127.138954,81.701714 127.138954,98.886276 127.138954,117.438591 
	C125.298988,115.047691 124.290863,113.826515 123.377945,112.537888 
	C112.794113,97.598419 102.246429,82.633240 91.616035,67.727020 
	C90.608658,66.314453 89.197189,64.335800 87.817467,64.199677 
	C83.278374,63.751850 78.667542,64.031174 74.222893,64.031174 
	C74.222893,92.910439 74.222893,120.953438 74.222893,149.448410 
	C76.924995,149.448410 79.233315,149.448410 82.470268,149.448517 
M320.701447,145.233551 
	C321.240143,144.843094 321.791595,144.468933 322.315674,144.059769 
	C334.004974,134.934525 338.086792,120.133911 332.524200,107.059708 
	C326.875244,93.782394 313.017975,86.003860 299.010284,88.247177 
	C284.385132,90.589378 273.640778,101.604279 272.887817,116.698074 
	C272.117920,132.132309 272.516846,147.627411 272.578705,163.095184 
	C272.583160,164.200272 273.787384,165.890427 274.829620,166.299194 
	C279.290741,168.048859 283.900330,169.419983 289.030640,171.119583 
	C289.030640,162.860458 289.030640,155.135788 289.030640,146.843414 
	C299.970703,151.613571 310.196747,151.495483 320.701447,145.233551 
M169.778000,144.731369 
	C183.693832,152.917450 201.009171,150.806793 208.616455,139.750870 
	C206.867096,138.078308 205.096817,136.347900 203.284180,134.663071 
	C201.384705,132.897522 199.444580,131.175720 197.635071,129.536987 
	C188.409607,135.971817 179.750366,135.040955 174.946335,126.799149 
	C189.333450,126.799149 203.309479,126.799149 217.477829,126.799149 
	C217.943588,117.289909 217.390549,108.725304 211.931763,101.340431 
	C204.199265,90.879562 193.740631,86.292099 180.936981,88.809715 
	C168.216125,91.311058 159.771530,99.179688 156.827866,111.910248 
	C153.742538,125.253456 158.231613,136.121292 169.778000,144.731369 
M447.918762,114.465065 
	C444.693054,96.405479 428.666779,85.004578 411.168396,88.321312 
	C394.894440,91.405968 383.811096,106.950905 386.210602,123.325859 
	C388.701782,140.326508 403.732056,151.878693 420.851868,149.951004 
	C437.779663,148.044922 449.505280,133.070694 447.918762,114.465065 
M243.098602,69.450348 
	C239.149658,70.763748 235.128708,71.903580 231.294922,73.494492 
	C230.118408,73.982719 228.677765,75.703255 228.673538,76.864250 
	C228.619736,91.691010 228.136719,106.562637 229.108658,121.334305 
	C230.189926,137.767517 245.606705,150.788879 261.977051,150.203613 
	C261.977051,144.970490 261.977051,139.724838 261.977051,134.524597 
	C244.809265,130.581512 243.724625,120.395729 245.599396,103.689751 
	C250.961349,103.689751 256.384460,103.689751 262.010071,103.689751 
	C262.010071,98.470970 262.010071,93.722977 262.010071,88.465004 
	C256.327362,88.465004 250.903275,88.465004 244.997849,88.465004 
	C244.997849,84.504555 245.137573,81.028168 244.953842,77.568962 
	C244.805801,74.781624 244.266937,72.015038 243.098602,69.450348 
M347.632477,112.246552 
	C346.873688,124.433685 346.114899,136.620819 345.337555,149.105927 
	C351.753235,149.105927 356.964111,149.105927 362.650513,149.105927 
	C362.650513,139.979279 362.685822,131.204132 362.639648,122.429420 
	C362.600830,115.052917 366.116516,109.660461 372.244568,106.092751 
	C375.029083,104.471619 378.392365,103.844620 381.555603,102.744949 
	C381.555603,97.682190 381.555603,92.600700 381.555603,87.553337 
	C367.581543,86.033730 353.707764,95.976776 347.632477,112.246552 
z"/>
<path fill="#EFEBD4" opacity="1.000000" stroke="none" 
	d="
M82.005951,149.448456 
	C79.233315,149.448410 76.924995,149.448410 74.222893,149.448410 
	C74.222893,120.953438 74.222893,92.910439 74.222893,64.031174 
	C78.667542,64.031174 83.278374,63.751850 87.817467,64.199677 
	C89.197189,64.335800 90.608658,66.314453 91.616035,67.727020 
	C102.246429,82.633240 112.794113,97.598419 123.377945,112.537888 
	C124.290863,113.826515 125.298988,115.047691 127.138954,117.438591 
	C127.138954,98.886276 127.138954,81.701714 127.138954,64.258636 
	C132.965164,64.258636 138.218292,64.258636 143.861664,64.258636 
	C143.861664,92.510437 143.861664,120.709969 143.861664,149.421021 
	C139.332138,149.421021 134.834229,149.739044 130.425964,149.249664 
	C128.869095,149.076828 127.221252,147.154495 126.141312,145.652466 
	C115.451462,130.784485 104.873795,115.835869 94.257904,100.914680 
	C93.595436,99.983551 92.878784,99.090981 91.345314,97.071678 
	C91.345314,115.053940 91.345314,131.820084 91.345314,149.448517 
	C87.952164,149.448517 85.211220,149.448517 82.005951,149.448456 
z"/>
<path fill="#EEEAD2" opacity="1.000000" stroke="none" 
	d="
M320.393311,145.431519 
	C310.196747,151.495483 299.970703,151.613571 289.030640,146.843414 
	C289.030640,155.135788 289.030640,162.860458 289.030640,171.119583 
	C283.900330,169.419983 279.290741,168.048859 274.829620,166.299194 
	C273.787384,165.890427 272.583160,164.200272 272.578705,163.095184 
	C272.516846,147.627411 272.117920,132.132309 272.887817,116.698074 
	C273.640778,101.604279 284.385132,90.589378 299.010284,88.247177 
	C313.017975,86.003860 326.875244,93.782394 332.524200,107.059708 
	C338.086792,120.133911 334.004974,134.934525 322.315674,144.059769 
	C321.791595,144.468933 321.240143,144.843094 320.393311,145.431519 
M296.336121,106.454903 
	C289.200867,111.790329 287.161194,118.524521 290.563538,125.513771 
	C293.616791,131.785904 300.619751,135.071274 307.257019,133.345352 
	C315.440857,131.217224 320.224457,122.682648 317.747009,114.629906 
	C315.144531,106.170807 306.211395,102.473007 296.336121,106.454903 
z"/>
<path fill="#EDE9D2" opacity="1.000000" stroke="none" 
	d="
M169.479813,144.526917 
	C158.231613,136.121292 153.742538,125.253456 156.827866,111.910248 
	C159.771530,99.179688 168.216125,91.311058 180.936981,88.809715 
	C193.740631,86.292099 204.199265,90.879562 211.931763,101.340431 
	C217.390549,108.725304 217.943588,117.289909 217.477829,126.799149 
	C203.309479,126.799149 189.333450,126.799149 174.946335,126.799149 
	C179.750366,135.040955 188.409607,135.971817 197.635071,129.536987 
	C199.444580,131.175720 201.384705,132.897522 203.284180,134.663071 
	C205.096817,136.347900 206.867096,138.078308 208.616455,139.750870 
	C201.009171,150.806793 183.693832,152.917450 169.479813,144.526917 
M181.673691,111.241547 
	C187.201096,111.241547 192.728500,111.241547 199.430527,111.241547 
	C195.321777,105.722313 191.007065,103.675278 185.758606,104.042473 
	C181.225800,104.359596 177.298538,106.119621 174.568222,111.241585 
	C177.179626,111.241585 178.958389,111.241585 181.673691,111.241547 
z"/>
<path fill="#EEEAD2" opacity="1.000000" stroke="none" 
	d="
M447.957520,114.875626 
	C449.505280,133.070694 437.779663,148.044922 420.851868,149.951004 
	C403.732056,151.878693 388.701782,140.326508 386.210602,123.325859 
	C383.811096,106.950905 394.894440,91.405968 411.168396,88.321312 
	C428.666779,85.004578 444.693054,96.405479 447.957520,114.875626 
M408.605804,106.969604 
	C402.379913,112.556419 400.723846,119.232643 403.988892,125.582108 
	C407.101349,131.634827 413.832977,134.884277 420.236725,133.325546 
	C426.300751,131.849472 430.061676,127.924782 431.436066,121.920990 
	C432.742096,116.215561 430.813873,111.328880 426.381653,107.720154 
	C421.064087,103.390579 415.208405,103.171524 408.605804,106.969604 
z"/>
<path fill="#F0ECD4" opacity="1.000000" stroke="none" 
	d="
M243.500031,69.344795 
	C244.266937,72.015038 244.805801,74.781624 244.953842,77.568962 
	C245.137573,81.028168 244.997849,84.504555 244.997849,88.465004 
	C250.903275,88.465004 256.327362,88.465004 262.010071,88.465004 
	C262.010071,93.722977 262.010071,98.470970 262.010071,103.689751 
	C256.384460,103.689751 250.961349,103.689751 245.599396,103.689751 
	C243.724625,120.395729 244.809265,130.581512 261.977051,134.524597 
	C261.977051,139.724838 261.977051,144.970490 261.977051,150.203613 
	C245.606705,150.788879 230.189926,137.767517 229.108658,121.334305 
	C228.136719,106.562637 228.619736,91.691010 228.673538,76.864250 
	C228.677765,75.703255 230.118408,73.982719 231.294922,73.494492 
	C235.128708,71.903580 239.149658,70.763748 243.500031,69.344795 
z"/>
<path fill="#ECE8D1" opacity="1.000000" stroke="none" 
	d="
M347.744507,111.860558 
	C353.707764,95.976776 367.581543,86.033730 381.555603,87.553337 
	C381.555603,92.600700 381.555603,97.682190 381.555603,102.744949 
	C378.392365,103.844620 375.029083,104.471619 372.244568,106.092751 
	C366.116516,109.660461 362.600830,115.052917 362.639648,122.429420 
	C362.685822,131.204132 362.650513,139.979279 362.650513,149.105927 
	C356.964111,149.105927 351.753235,149.105927 345.337555,149.105927 
	C346.114899,136.620819 346.873688,124.433685 347.744507,111.860558 
z"/>
<path fill="#2D2D2C" opacity="1.000000" stroke="none" 
	d="
M296.678101,106.252533 
	C306.211395,102.473007 315.144531,106.170807 317.747009,114.629906 
	C320.224457,122.682648 315.440857,131.217224 307.257019,133.345352 
	C300.619751,135.071274 293.616791,131.785904 290.563538,125.513771 
	C287.161194,118.524521 289.200867,111.790329 296.678101,106.252533 
z"/>
<path fill="#373735" opacity="1.000000" stroke="none" 
	d="
M181.205414,111.241562 
	C178.958389,111.241585 177.179626,111.241585 174.568222,111.241585 
	C177.298538,106.119621 181.225800,104.359596 185.758606,104.042473 
	C191.007065,103.675278 195.321777,105.722313 199.430527,111.241547 
	C192.728500,111.241547 187.201096,111.241547 181.205414,111.241562 
z"/>
<path fill="#2E2E2D" opacity="1.000000" stroke="none" 
	d="
M408.922974,106.770416 
	C415.208405,103.171524 421.064087,103.390579 426.381653,107.720154 
	C430.813873,111.328880 432.742096,116.215561 431.436066,121.920990 
	C430.061676,127.924782 426.300751,131.849472 420.236725,133.325546 
	C413.832977,134.884277 407.101349,131.634827 403.988892,125.582108 
	C400.723846,119.232643 402.379913,112.556419 408.922974,106.770416 
z"/>
</svg>